# xmcd
#
# Track frame offsets:
#	150
#	13200
#	31397
#	59163
#	92303
#	111593
#	136937
#
# Disc length: 2069 seconds
#
# Revision: 1
# Processed by: cddbd v1.5.2PL0 Copyright (c) Steve Scherf et al.
# Submitted via: EZCDAudioConverter 8.0.7.1
#
DISCID=5e081307
DTITLE=Jean Baylor - Light Up The World
DYEAR=2011
DGENRE=Gospel
TTITLE0=Celebrate
TTITLE1=Light Up The World
TTITLE2=For Your Love Featuring Eric Roberson
TTITLE3=You Are
TTITLE4=Closer
TTITLE5=Praise Song
TTITLE6=Light Up The World (Remix)
EXTD=
EXTT0=
EXTT1=
EXTT2=
EXTT3=
EXTT4=
EXTT5=
EXTT6=
PLAYORDER=
